<?xml version="1.0" encoding="utf-8"?>
<svg xmlns="http://www.w3.org/2000/svg" viewBox="0 0 500 500">
  <g transform="matrix(0.793401, 0, 0, 0.793401, -67.565088, -67.699854)" style="">
    <path class="st1" d="M377.7,622.7l0.2-1.1c0.1-0.5,0.2-0.8,0.5-1.3c-5.1-4.3-10.9-2.9-13.8-1.4c0.3,0.9,0.6,2,0.7,2.9 c1,6.9-1.8,13.1-7.7,17.1c3,5.2,8.6,7.6,13.2,7.4h0.1c6.5-0.5,9.8-3.2,11.8-6.4C380.3,637.6,376,632.2,377.7,622.7z" style="fill: rgb(255, 255, 255);"/>
    <path class="st1" d="M309.6,603c4.6-0.8,7.8-2.6,9.9-5.4c2.1-2.8,3.4-6.3,3.2-10.5c-0.1-2.5-0.9-5.2-2.4-7.9c0,0,2.8,2.8,4.1,6 c0.5,1,1.4,3.4,1.5,6.4c0.5,0.3,0.9,0.6,1.4,0.9h0.2c3,1.7,6.4,2.2,9.9,1.5c3.2-0.7,6.1-2.4,8-4.8c0,0,0-0.1-0.1-0.1h-0.1 c-1.8-2.5-2.8-5.6-3-9.2v-0.2c-0.1-1.6-0.3-4.9,1.7-9.3c-0.9,0-1.8,0.1-2.6,0.1c-7.4,0.6-15.5,2.4-23.3,4.9l-0.1,0.2l-0.2-0.1 c-9.7,3.1-18.8,7.1-25.6,10.9c-0.1,1.6,0,3.1,0.3,4.7c1.5,6.8,7.2,11.6,14.1,12.2l0.9,0.1c0.7-0.1,1.4-0.1,2-0.2L309.6,603z" style="fill: rgb(255, 255, 255);"/>
    <path class="st1" d="M422.8,598.8c-5.3,0.6-9.2,2.5-11.4,5.5c-2.1,2.9-2.8,6.3-2.9,8.6c0,2,0.3,6.7,2.2,10.8 c-2.6-3-4.3-8.2-4.3-8.2c-0.6-2.6-2.5-7.7,2.5-14.5c2.6-3.4,5.5-5.5,10.3-6.4c-1.8-6.5-7.7-11-14.2-11.4 c1.4,7.4-1.1,15.3-7.5,19.9c-3,2.2-6.4,3.1-9.9,3.3c-4.1,0.2-8.3-1-11.8-3.7c0,0-5.2-3.7-5.6-10.5c-2,1.8-4.4,3-7.5,3.7 c-1.8,0.1-4.7,0.3-6.5,0c-3-0.7-5.5-1.8-7.6-3.3c-2.5,3.1-6.2,5.2-10.3,6.1c-0.9,0.2-2,0.3-2.9,0.3c-3.6,0.2-7-0.6-10.1-2.3 c-0.5,1.3-1,2.4-2,3.7c-3,4-7.7,6.5-14.1,7.4c-0.1,1.6-0.1,3.4,0,4.5c0.5,3,1.7,6.5,5.7,9.5c2,1.5,4.8,2.5,7.8,2.6 c0.2,0,0.5,0,0.7,0l0.3-0.3c0.1,0,0.2,0,0.3,0c0.5,0,0.9,0,1.4-0.1c0.5-0.1,0.9-0.1,1.4-0.2c1.5-0.3,3-1,4.3-1.7c0,0,0,0,0,0.1 c-1.3,0.8-2.8,1.4-4.2,1.8c1.7-0.3,3.1-0.9,4.4-1.7c0,0,0,0,0-0.1c0.5-0.3,1-0.6,1.4-1.1l0,0c1.1-0.9,2.1-2,2.8-3.1 c2.4-3.7,2.3-7.6,2-9.9l0.1-0.1c-0.2-1-0.5-1.6-0.5-1.6s-0.7-2.2-1.8-3.8c0.5,0.3,2.1,2,3.3,4.1l0,0c0.2,0.4,0.5,0.8,0.7,1.3 c0.1-1,0.1-1.7,0-2.1l0.1-0.1c0,0,0.1,0.9,0,2.4c1.5,3.3,2.3,7.6-0.5,12.3c-1.5,2.3-3.4,4.1-5.9,5.4c0.6,3.6,2.3,8.3,7.9,10.9 c3.7,1.7,9.2,1.4,13.4-0.9l0.6-0.3c6.2-4,7.1-9.5,6.9-12.5c-0.2-5.5-3.3-11.1-9.8-14.1v-0.1c4.5,0.5,8,2.9,10.3,6.1 c3.7-2.1,11.9-3.4,18.6,1.3c2.5-3,6.5-5.3,12.6-5.6c2,0,6,0.2,9,2.2c-1.5-0.6-4.9-0.6-4.9-0.6c-12.3,0.5-14.7,9.1-15.2,10.8 c-1.3,7.2,1.6,11.7,3.3,13.7l0.6,0.5c3.8,3.2,8.7,4.5,13.7,3.4c5.9-1.4,10.6-6,11.8-11.9l0.5-2.1l1.7,1.1c3.6,2.3,7.8,3,11.9,2.1 c8.4-2,13.7-10.3,11.8-18.7C436.3,603.9,430,598.9,422.8,598.8z" style="fill: rgb(255, 255, 255);"/>
    <path class="st1" d="M326.9,623.9L326.9,623.9c-0.1,0-0.1,0-0.2,0C326.8,624,326.8,623.9,326.9,623.9z" style="fill: rgb(255, 255, 255);"/>
    <path class="st1" d="M374.6,598.3c1.5,1.3,3.2,2.2,4.9,2.8c0,0,8,3.7,15.5-1.5c4-2.8,7.2-9.7,5.2-17.2c-0.2-0.1-0.9-0.5-0.9-0.5 c-9.7-4.9-27.2-11.3-47.3-11.9h-0.8c-0.7,0-1.4,0-2.1,0c-2.8,4.5-2.5,7.7-2.4,9.2v0.3c0.5,7.9,6,11.9,11,13.1 c5.1,1.1,12.3,0,16.2-7l0.3-0.4l0,0c-0.9,2.6-1.9,4.7-3.1,6.2l-0.1,0.1c-0.2,0.2-0.3,0.4-0.5,0.7c0.1,0.5,0.3,1,0.4,1.5l0,0 C371.8,595.9,373.1,596.9,374.6,598.3z" style="fill: rgb(255, 255, 255);"/>
    <path class="st1" d="M326.7,624c-0.4,0.1-0.8,0.1-1.2,0.2C325.9,624.2,326.3,624.1,326.7,624z" style="fill: rgb(255, 255, 255);"/>
    <path class="st1" d="M516.7,514.7c-2.1-5.9-7.8-14.4-16.7-16.7c-6.5-4.9-14-4.3-17.9-2.8c-7.6-0.1-12.2,4.6-14.2,8.3 c-0.8,0.6-1.7,1.5-2.6,2.6c-1.4,2.1-2.8,5.7-1.1,11.3c0.1,7.1,4,11.1,7.9,12.6c4.5,2.1,9.3-0.1,10.2-0.6l4.5-2.3l-2.5-4.4 c0,0-1.4-2.4-1.7-5.1c0-0.5,0-1.1,0.1-2c0.6-0.6,1.3-1.1,2-1.4l0.1-0.1c1.5-0.6,4,0,5.7,0.6c0.6,2,1.7,4.6,3.7,6.5 c-1.1,2.5-2.1,5.7-2.3,9.2c-3.4,1.1-5.3,4.1-6.3,6.3c-1,0.2-1.8,0.7-2.5,1c-1.5,0.3-2.7,0.5-8-0.1h-0.4l-0.7-0.1 c-3.7-0.3-8.5-2.6-10.1-3.5l-0.2-0.1c-0.3-0.2-31.8-18.3-50.8-29.1l-0.3-0.2c-6.5-3.4-21.9-11.4-41.9-10.6 c-14.7,0.3-31.1,6.8-41.8,16.3l-3.6,3.2c-6.5,1.3-11.5,2.5-11.8,2.5l-3.3,0.8l-1,12.6c-6,2.3-10.4,4.8-10.8,5l-2.1,1.2 c-0.1,0-0.1,0.1-0.2,0.1l-0.1,0.1l0.1-0.1c0,0-0.1,0-0.1,0.1l-1.5,0.9l0,0l-0.1,2.8c0,0.9-0.1,3.8,0.1,7l5.2-2.1l1.3-0.5l2.8-1 l0,0l3.1-0.9c16.2-5.1,38.9-7.1,57.7-0.8c15.4,5.2,23,11.8,29.8,17.6c1.3,1.1,2.5,2.2,3.8,3.2l0,0l0,0c-7.6-4.9-21.1-13-35.2-17 c-14-4-33.7-4.3-52.3,1.5c0,0-2.8,0.9-6.7,2.4c0,0,0,0,0-0.1c-0.2,0.1-0.3,0.1-0.5,0.2c-0.6,0.2-1.1,0.5-1.7,0.7 c-4.5,1.8-9.9,4-13.5,6l0.1,2.3c0,0.5,0.7,10.3,2.6,19.2l0.3,1.4c0,0,0-0.1,0.1-0.1c0.2,0.8,0.3,1.3,0.3,1.3 c0.3-0.1,0.7-0.2,1-0.5l0,0c4.2-2,20.1-9.2,31.4-11.7c6.3-1.4,11.4-2.5,16.5-3c0.1,0,0.1,0,0.2,0c0.7-0.1,1.4-0.1,2-0.1 c0,0-0.1,0-0.1-0.1h0.1l0.1,0.1c0.7,0,1.5-0.1,2.2-0.1c0.7,0,1.4,0,2.1,0c-0.1-0.1-0.1-0.1-0.2-0.2l0,0l0.1,0.1c0.7,0,1.3,0,1.8,0 l0,0c0.8,0,1.5,0,2.2,0l0.1-0.1c0.1,0,0.3,0,0.4,0c0.5,0.1,1.1,0.1,1.8,0.2l0,0c1.4,0,2.7,0.1,4.1,0.2c0.4,0,0.9,0.1,1.3,0.1 c14.9,1.4,28.5,5.8,36.4,8.8c0.7,0.3,1.4,0.6,2,0.9c1.1,0.5,2.7,1.1,2.9,1.1c1.4,0.6,2.1,0.9,2.1,0.9l2.8-5.2 c11.4,4.6,41.9,16.2,58.4,15.9c2.3,0.3,5.6,0.7,9.5,0.6c5.4-0.1,11.7-0.9,17.7-3.2c16.4-3.3,25.8-19.2,28-26.1 c5.4-6.5,6.4-18.6,4.1-26.7C522.3,526.4,521.3,519.4,516.7,514.7z M479.6,565.8c-1.3,9.5-5,13.1-5,13.1s1.8-7.5-0.9-21.2 c-1.1-5.6-4.1-11.3-4.1-11.3l8.9,1.5C478.5,547.9,481.3,553.1,479.6,565.8z M506.7,535.4c-3.4-1.5-5.8-1.9-5.8-1.9s0-2.6,0.5-4.9 c3.3,0.3,6.8,2.3,8.8,4.4c2,2.1,3.9,5.2,5.1,8.3C513.2,539.5,510.5,537.1,506.7,535.4z" style="fill: rgb(255, 255, 255);"/>
    <path class="st1" d="M297.7,166.7c4.5,7.4,9.5,11.9,15.4,13.8c0.7,1.1,1.4,2.2,2.2,3.2c-3.1,0.1-6.4,0.5-9.9,1.5 c6,5,12.2,8.5,19.4,8.8c0.8,0.7,1.7,1.4,2.5,2.1c-2.5,0.2-5,0.6-7.5,1.1c7.2,6.5,15.1,9.3,21.8,8.1c1.3,0.7,2.8,1.4,4.3,2.1 c-1.4,0.7-2.8,1.5-4.2,2.3c6.2,2.3,12,3.2,16.8,2.6c9.6,3.3,18.3,5.7,18.3,5.7s18.7,2.6,22.5,10.8c5.9-9,12.6-10.2,14.9-10.8 c9.2-2,16.2-3.6,22.7-5.7c4.3,0.2,9.2-0.7,14.5-2.8c-1-0.7-2-1.3-3-1.9c1.6-0.8,3.2-1.7,4.9-2.6c7.9,0.3,14.3-3.5,21.3-8.3 c-2.8-0.5-5.4-1-8-1.2c0.6-0.6,1.2-1.1,1.8-1.7c7.3-0.7,13.3-4.7,18.9-10.3c-3.2-0.9-6.4-1.3-9.6-1.1c0.5-0.8,1-1.6,1.5-2.4 c6.8-1.9,12.4-6.8,15.3-13.8c-4.1,0.4-7.5,1-10.5,1.7c0.3-1.3,0.5-2.5,0.7-3.8c4.5-3.6,7.2-8.8,7.5-14.7c-2.3,1.3-4.9,2.3-7.3,3.4 c-0.2-2-0.6-4-1.2-6c2-3.8,2.1-8.4,0.4-14.3c-1.8,1.2-3.5,2.5-4.9,3.6c-1-1.7-2.1-3.3-3.3-4.9c1.3-4.1-0.2-9.4-4.4-16.4 c-2.5,2-4.3,4.1-5.5,6.2c-1.5-1.3-3.1-2.5-4.8-3.6c-0.5-5.2-4.8-10.1-13.3-15.3c-0.6,2.8-0.9,5.2-0.9,7.5 c-1.7-0.7-3.3-1.4-5.1-2.1c-2.3-5.5-8-9.5-15.8-10.9c0.2,2.4,0.6,4.5,1.1,6.4c-2.2-0.5-4.5-1-6.8-1.4c-4.2-4.3-11.3-6.5-19.8-5.8 c0.7,1.4,1.4,2.7,2.2,3.8c-2.6-0.2-5-0.2-7.4-0.2c-1.9,0-3.8,0.1-5.7,0.2c0.7-1.2,1.4-2.5,1.9-3.9c-8.6-0.3-15.2,1.6-19.3,5.7 c-2.3,0.4-4.5,0.9-6.7,1.4c0.5-2.1,0.7-4.2,0.4-6.5c-8.3,3.1-13.2,6.4-15.3,11c-1.7,0.7-3.4,1.3-5.1,2.1c-0.1-2-0.3-4.2-0.7-6.6 c-7.7,4.4-12.2,9.3-13.2,14.2c-1.9,1.3-3.8,2.6-5.5,4c-1.1-1.8-2.7-3.5-4.7-5.3c-4,5.8-5.7,10.9-5,15c-1.1,1.3-2,2.7-2.9,4.1 c-1.6-1.2-3.5-2.3-5.7-3.4c-1.5,5.6-1.3,10,0.7,13.7c-0.7,2.1-1.2,4.2-1.6,6.3c-1.9-0.7-4.1-1.4-6.4-2c0.9,5,3,8.9,6,12 c0.2,1.9,0.4,3.7,0.9,5.5C303.9,166.3,300.9,166.6,297.7,166.7z M396.3,131.9c27.1-0.1,45.4,15.5,45.5,26.7 c0.1,9.2-10.3,15.3-29.3,20.3c-9,2.4-11.6,6.3-14.8,9.7c-1.3-2.1-5.4-6-14-7.9c-20.4-4.5-33.9-12.3-33.9-21.6 C349.8,147.9,369.2,132,396.3,131.9z" style="fill: rgb(255, 255, 255);"/>
    <path class="st1" d="M652.1,159.6l-136.9,80l-0.1-0.1l-6.1,3.4c-0.2,0.1-19.4,10.7-42.3,14.4c-34.9,5.6-61.3-16.4-61.6-16.7 l-6.3-5.6l-6.1,5.9c-0.8,0.8-20.3,18.7-58.7,17.2c-15-0.6-30.5-7.2-39.2-11.6l-149.3-86.3l-0.2,116.9l-50.6-28.7l0.8,270.4v0.5 c1.4,25.7,3,47.2,9.5,69.4c7.5,25.5,20.9,48.1,41.1,69.2c13.8,14,29.5,24.8,46.9,32.1c14.9,6.2,31.5,10,49.3,11.1 c4.5,0.3,8.8,0.5,13.2,0.5c27.1,0,52.6-5.3,73.6-9.5c9.8-2,18.7-3.8,25.8-4.6c24.1-0.4,32.9,10.3,38.9,12.7 c1.3,0.8,2.9,1.3,4.8,1.3c0.5,0,0.8-0.1,1.1,0c1.7-0.2,3.1-0.8,4.3-1.6l0.1,0.1c6.2-4.3,11-7.2,15.9-9.2c20.3-8,38.3-3.6,61,2.2 c3.9,1,7.9,2,12.1,3l0.5,0.1c15.7,2.6,33.3,5.2,51.4,5.2c10.1,0,20.4-0.8,30.8-2.5c29.3-5.6,55-20.2,78.7-44.7 c20-20.7,32.4-40.4,39.2-61.9c6.1-19.6,7.1-39.2,8.4-61.8l0.2-4.3l0.6-277L652.1,278V159.6z M634.1,243.8L634,288l-43.2,26 l-16.2-16l-8.9-9.3L634.1,243.8z M455.3,276.8c4.6,0,9.4-0.3,14.5-1.1c18.2-2.9,33.9-9.4,42.2-13.3l66.1,65.1 c-9,9.9-24.2,30-30.8,57c-5.7,1.3-10.7,4.5-11.4,4.9l-4.8,3.2l3.8,4.4c0.2,0.2,3.7,4.2,9.5,6.7c-0.2,3.6-0.3,7.2-0.2,11 c0.5,14.7,3.1,30,6.6,44.2c-14.5-2.8-36.3-5.8-63.1-5.9c-0.4,0-0.8,0-1.1,0v-35.3h0.1c0-0.2,0-0.3-0.1-0.5c1.2-6,7.3-6.8,8.6-7 l-0.5-5.1l0.3,5.1l-0.8-10.1c-2.1,0.2-4.9,0.8-7.7,2.3v-7.5c1.6-6.7,15.3-7.7,15.4-7.7l-0.5-10.2c-0.5,0.1-8.2,0.5-14.9,3.9V369 l0,0l0,0v-0.5c0.3-0.5,0.7-1.2,1.1-1.9c5.1,0.8,14.4,1,22.5-6.4c7.4-6.4,8.7-16.1,8.7-16.5l0.7-5.1l-5.1-0.7 c-0.6-0.1-12.6-1.5-22.5,7.5c-4,3.5-7.5,7.7-10.1,11.4c-2.9-4.5-7.5-9.5-15.1-13.7c-8.2-4.5-16.2-4.3-16.5-4.3l-5.7,0.2l0.9,5.6 c0.1,0.7,2.8,17,16,21.5c6.1,2.1,11.1,1.4,14.1,0.5c0.4,1,0.6,1.8,0.7,2.3v11.9c-6.7-3.5-14.4-3.9-14.9-3.9l-0.5,10.2 c0,0,4,0.2,8.2,1.6c4.2,1.5,6.7,3.5,7.2,6.1v7.5c-2.8-1.4-5.6-2.1-7.7-2.2l-0.8,10.1c0.3,0,7.4,0.7,8.5,7.2v35.5 c-32,0.7-55.2,4.9-67.9,7.9v-55c1.7,0.4,3.7,0.7,6,0.8c0.1,0,0.2,0,0.3,0c7.7,0,15.9-6.1,16.7-6.8l4.6-3.6l-4.1-4.1 c-0.3-0.2-7.7-7.6-18.5-7.6c-1.8,0-3.4,0.2-4.9,0.7V264.6C419.3,270.4,435.7,276.8,455.3,276.8z M333.6,276.6 c1.7,0.1,3.6,0.1,5.3,0.1c22.7,0,39.8-5.9,51-11.7v196h-0.2c-6.7-1.6-21.4-4.7-41.5-6.5c-0.4-5.8-1.6-20.7-1.6-20.7 s1.3-12.2,1.6-14c2.9-8.6,4.5-15,5.2-16.3c1.7-0.9,6.9-4.1,9.8-7.7c2.8-3.4,3.9-4.5,4.8-10.1l2.2-18.8l-2.5-48.1l14.9-2l2.9-4.1 l0.2-4.6L365.8,294c0,0-8.5,2.9-10.5,3.4c-4-2.1-11.3-3.2-18.7,2.5c0.8,2.8,3.3,5.4,6.4,7.1c3.9,2.3,11,2.2,11,2.2 s0.1,1.8,0.1,3.6c0.7,20.7,0.3,43.5,0.3,43.5l-20.4,1.4l-52.4-2.3l-18.5,17.5l-2.3,6.3c-2.1,5.7-1.8,12.2,0.7,17.8l9.1-9.9 l3.7,17.5l-4.9,23.9l3.4,9.5c0,0,3.4,8.6,6.7,17.1c-16.2,1.7-27.7,4.1-33.8,5.6c4.5-17.2,5.6-26.7,5.9-28.9 c0.8-4.6,6.8-42-5.2-69.3c-5.5-12.5-12-22.2-17.8-29.2c-1.9-3.3-3.7-5.9-5.3-8.1l4-4.3l57.8-58.6 C294.7,267.3,314,275.8,333.6,276.6z M339,453.8c-0.9-0.1-1.9-0.1-2.8-0.2c-0.6-8.8-1.9-28.7-1.9-28.7l0.9-2.4l2-11l-0.3,12.1v4 L339,453.8z M327.9,453.3c-2.8-0.1-5.7-0.1-8.6-0.2c-5.2,0-10.2,0.1-14.9,0.2c-2.3-7.5-3.9-14.4-6.1-21.5 c-0.7-2.1,0.8-11.7,0.8-11.7l9.7-16l7.8,2.9l7.2-1.4l-0.7,21.1L327.9,453.3z M295.3,453.6c0,0.1,0,0.1,0,0.2 c-2.6,0.2-5.2,0.3-7.6,0.5c-3.2-9.3-7.6-25.8-7.6-25.8l8.7-23.2l-1,25.8C287.8,431,293.6,445.9,295.3,453.6z M163.2,245.3l70.1,43 L209.1,313l-45.9-25.6V245.3z M201,547.6l-70.9-41.7c-7.4-5.8-16.4-15.8-16.6-30.7c-0.1-2.9-0.1-4.7-0.3-5.7l-0.2-86.1 c12,6.7,96,53.5,115.9,68.2c-3.5,14.2-9.7,35.5-20.6,64.2C204.2,526.2,201.8,536.9,201,547.6z M557.4,620.8 c-24.6,21.1-48.7,33.8-99,35.8c-32.6,1.3-49.5,12.2-59.5,22.1c-8.2-8.3-25.2-21-60.8-22.1c-34.9-1-57.9-10.3-71.1-17.9 c-13.9-8-20.1-16-20.4-16.4l-0.3-0.7l-0.6-0.6c-0.1-0.1-10.8-10.7-18.5-28.3c-10.1-23-10.6-46.8-1.5-70.5 c6.3-16.6,11.1-30.8,14.8-42.7h316.2c7.2,23,15.2,40.3,16.5,43.1c0.7,2,6.3,17.3,7.4,36.5C581.7,585.8,574,606.5,557.4,620.8z M684.6,383.2l-0.2,92.7c-0.5,16.9-10.7,26.2-17.4,30.5l-3.5,2.1c-1.4,0.7-2.3,1-2.3,1l0.6-0.1l-64.2,37.1 c-2.4-17.7-7.3-30.3-7.6-31l-0.2-0.6c-0.2-0.4-14-30-21.9-64L684.6,383.2z" style="fill: rgb(255, 255, 255);"/>
    <path class="st1" d="M415.5,361l-4.6,1.8l1.6,4.7c0.1,0.5,4.4,11.7,17.7,15.6c2.3,0.7,4.7,0.9,7,0.9c8.6,0,16.3-3.6,16.9-3.8 l5.3-2.5l-3.6-5.4c-2.4-3.8-6.4-10.1-17.6-13.6C429,355.9,416.9,360.4,415.5,361z" style="fill: rgb(255, 255, 255);"/>
    <path class="st1" d="M524.9,360.9c-8.8,2.3-16.2,12.1-17,13.2l-3.4,4.7l5.1,2.8c0.3,0.2,6.8,3.7,15.2,3.7c2.6,0,5.4-0.2,8.2-1.1 c10.6-3.1,15.6-13.8,15.9-14.2l2.2-4.6l-5.2-2.4C541.9,361,535.4,358,524.9,360.9z" style="fill: rgb(255, 255, 255);"/>
    <path class="st1" d="M481.2,349.8l3.7-3.2c0.3-0.2,8.4-7.1,9-20.8c0.5-11.5-8.3-19.1-8.6-19.4l-3.8-3.2l-3.3,3.7 c-0.1,0.2-0.3,0.3-0.5,0.6c-2.6,2.8-7.6,8-7.9,18.7c-0.3,10.9,7.8,19.8,8.2,20.1L481.2,349.8z" style="fill: rgb(255, 255, 255);"/>
    <path class="st1" d="M525.7,354c0.5,0.1,2.5,0.7,5.5,0.7c3.1,0,7.4-0.6,11.5-3c7-4.1,8.6-12.2,8.8-13.1l0.9-5.1l-5.4-1 c-2.8-0.6-8-1.6-15,2.3c-1,0.6-6.2,3.8-9.8,12.3l-2.2,5.4L525.7,354z" style="fill: rgb(255, 255, 255);"/>
    <path class="st1" d="M422.3,351.7c2.4,1.1,4.9,1.5,7.1,1.5c4.5,0,8.2-1.6,8.7-1.7l4.6-2.2l-2.3-4.9c-1.3-2.6-3.4-7.5-10.7-10.9 c-1-0.5-6.7-2.9-15.6-0.8l-5.6,1.3l2.1,5.4C410.9,340.1,414,348,422.3,351.7z" style="fill: rgb(255, 255, 255);"/>
    <path class="st1" d="M504.4,334.1c1.6,0,6.8-0.3,11.1-4.4c4.5-3.9,4.5-10,4.5-10.7l-0.1-5.1l-5.4,0.1c-1.8,0.1-5.9,0.1-10.2,3.9 c-3.7,3.1-4.8,8.8-5.1,10l-1,5.7l5.7,0.3C503.9,334.1,504.2,334.1,504.4,334.1z" style="fill: rgb(255, 255, 255);"/>
    <path class="st1" d="M458.2,332.5l5.1,0.7l0.8-5.3c0.2-1.7,0.7-5.4-2.1-9.9c-2.3-3.7-7.2-5.6-8.3-6l-5.5-2l-1.3,5.6 c-0.1,0.6-1.3,6.1,2.1,11.1C452.1,331.6,457.6,332.4,458.2,332.5z" style="fill: rgb(255, 255, 255);"/>
    <path class="st1" d="M440,399.1c-7.9,4.5-9.9,13.7-10.1,14.7l-1,5.1l5.1,0.9c1,0.2,3,0.6,5.5,0.6c3.2,0,7.5-0.6,11.9-2.9 c7.9-4.1,11-13.4,11.4-14.5l1.6-5.1l-5.1-1.4C458.9,396.5,449,393.8,440,399.1z" style="fill: rgb(255, 255, 255);"/>
    <path class="st1" d="M502.8,397.8l-3.9,2.9l2.6,4c0.6,0.9,5.9,8.5,13.7,10.7c1.8,0.5,3.7,0.7,5.5,0.7c6.1,0,11.8-2.1,12.8-2.5 l5.2-2l-2.4-4.9c-0.2-0.5-4.7-9.7-14.5-12.2C511.1,391.8,503.1,397.6,502.8,397.8z" style="fill: rgb(255, 255, 255);"/>
  </g>
</svg>